<svg width="48" height="48" viewBox="0 0 48 48" fill="none" xmlns="http://www.w3.org/2000/svg">
<path d="M34.2141 21.9344H34.2135C31.7962 21.9344 29.4332 22.6512 27.4233 23.9942C25.4134 25.3372 23.8468 27.246 22.9218 29.4793C21.9967 31.7126 21.7547 34.1701 22.2263 36.5409C22.6979 38.9118 23.8619 41.0895 25.5712 42.7988C27.2805 44.5081 29.4582 45.6722 31.8291 46.1437C34.2 46.6153 36.6574 46.3733 38.8907 45.4482C41.124 44.5232 43.0328 42.9566 44.3758 40.9467C45.7188 38.9368 46.4356 36.5738 46.4356 34.1565V34.1559C46.4318 30.9158 45.1429 27.8094 42.8518 25.5183C40.5606 23.2271 37.4543 21.9383 34.2141 21.9344ZM13.6993 25.8649H13.6999C16.1172 25.8649 18.4802 25.1481 20.4901 23.8052C22.5 22.4622 24.0665 20.5533 24.9916 18.3201C25.9167 16.0868 26.1587 13.6293 25.6871 11.2585C25.2155 8.8876 24.0515 6.70984 22.3422 5.00055C20.6329 3.29126 18.4551 2.12722 16.0843 1.65563C13.7134 1.18403 11.256 1.42607 9.02268 2.35113C6.78938 3.27619 4.88055 4.84273 3.53758 6.85264C2.1946 8.86255 1.47778 11.2256 1.47778 13.6429L1.47778 13.6435C1.48162 16.8836 2.77048 19.99 5.06162 22.2811C7.35276 24.5723 10.4591 25.8611 13.6993 25.8649ZM34.213 43.9133C32.2834 43.9132 30.3973 43.341 28.7929 42.269C27.1884 41.1969 25.9379 39.6731 25.1994 37.8903C24.4609 36.1075 24.2677 34.1457 24.6442 32.253C25.0206 30.3604 25.9499 28.6219 27.3144 27.2574C28.6789 25.8929 30.4174 24.9636 32.31 24.5872C34.2027 24.2107 36.1645 24.4039 37.9473 25.1424C39.7301 25.8808 41.2539 27.1314 42.326 28.7359C43.3981 30.3404 43.9703 32.2268 43.9703 34.1565C43.9674 36.7433 42.9385 39.2233 41.1094 41.0524C39.2802 42.8817 36.7999 43.9106 34.213 43.9133ZM13.7002 3.88604C15.6298 3.8861 17.516 4.45833 19.1205 5.53036C20.725 6.60246 21.9755 8.12626 22.714 9.90909C23.4525 11.6919 23.6457 13.6537 23.2692 15.5463C22.8927 17.439 21.9635 19.1775 20.599 20.542C19.2345 21.9065 17.496 22.8357 15.6033 23.2122C13.7107 23.5887 11.7489 23.3955 9.96609 22.657C8.18327 21.9185 6.65946 20.668 5.58736 19.0635C4.51533 17.459 3.9431 15.5728 3.94304 13.6432C3.94587 11.0563 4.97476 8.57617 6.80396 6.74696C8.63317 4.91776 11.1133 3.88887 13.7002 3.88604Z" fill="#9747FF" stroke="#9747FF"/>
<mask id="path-2-outside-1_288_16" maskUnits="userSpaceOnUse" x="0.917236" y="0.704224" width="47" height="47" fill="black">
<rect fill="white" x="0.917236" y="0.704224" width="47" height="47"/>
<path d="M9.30418 17.3061C9.10988 17.3061 8.92353 17.3833 8.78614 17.5207C8.64874 17.6581 8.57155 17.8444 8.57155 18.0387C8.57155 18.233 8.64874 18.4194 8.78614 18.5568C8.92353 18.6942 9.10988 18.7714 9.30418 18.7714H11.5021V19.504C11.5021 19.6983 11.5793 19.8847 11.7167 20.022C11.8541 20.1594 12.0404 20.2366 12.2347 20.2366C12.429 20.2366 12.6154 20.1594 12.7528 20.022C12.8901 19.8847 12.9673 19.6983 12.9673 19.504V18.7714H14.4326V19.504C14.4326 19.6983 14.5098 19.8847 14.6472 20.022C14.7846 20.1594 14.9709 20.2366 15.1652 20.2366C15.3595 20.2366 15.5459 20.1594 15.6833 20.022C15.8207 19.8847 15.8979 19.6983 15.8979 19.504V18.7714C16.4945 18.774 17.0776 18.5937 17.5686 18.2547C18.0597 17.9157 18.435 17.4344 18.644 16.8755C18.853 16.3167 18.8856 15.7072 18.7376 15.1292C18.5895 14.5512 18.2678 14.0325 17.8159 13.643C18.2678 13.2534 18.5895 12.7347 18.7376 12.1567C18.8856 11.5787 18.853 10.9692 18.644 10.4104C18.435 9.85153 18.0597 9.37018 17.5686 9.0312C17.0776 8.69222 16.4945 8.5119 15.8979 8.51455V7.78192C15.8979 7.58761 15.8207 7.40126 15.6833 7.26387C15.5459 7.12648 15.3595 7.04929 15.1652 7.04929C14.9709 7.04929 14.7846 7.12648 14.6472 7.26387C14.5098 7.40126 14.4326 7.58761 14.4326 7.78192V8.51455H12.9673V7.78192C12.9673 7.58761 12.8901 7.40126 12.7528 7.26387C12.6154 7.12648 12.429 7.04929 12.2347 7.04929C12.0404 7.04929 11.8541 7.12648 11.7167 7.26387C11.5793 7.40126 11.5021 7.58761 11.5021 7.78192V8.51455H9.30418C9.10988 8.51455 8.92353 8.59174 8.78614 8.72913C8.64874 8.86652 8.57155 9.05287 8.57155 9.24718C8.57155 9.44148 8.64874 9.62783 8.78614 9.76523C8.92353 9.90262 9.10988 9.97981 9.30418 9.97981H10.0368V17.3061H9.30418ZM11.5021 9.97981H15.8979C16.2865 9.97981 16.6592 10.1342 16.934 10.409C17.2087 10.6838 17.3631 11.0565 17.3631 11.4451C17.3631 11.8337 17.2087 12.2064 16.934 12.4812C16.6592 12.756 16.2865 12.9103 15.8979 12.9103H11.5021V9.97981ZM11.5021 14.3756H15.8979C16.2865 14.3756 16.6592 14.53 16.934 14.8048C17.2087 15.0795 17.3631 15.4522 17.3631 15.8408C17.3631 16.2295 17.2087 16.6022 16.934 16.8769C16.6592 17.1517 16.2865 17.3061 15.8979 17.3061H11.5021V14.3756ZM35.6789 33.424H32.7483C32.3597 33.424 31.987 33.2696 31.7123 32.9948C31.4375 32.72 31.2831 32.3473 31.2831 31.9587C31.2831 31.5701 31.4375 31.1974 31.7123 30.9226C31.987 30.6478 32.3597 30.4935 32.7483 30.4935H37.1441C37.3384 30.4935 37.5248 30.4163 37.6622 30.2789C37.7996 30.1415 37.8768 29.9551 37.8768 29.7608C37.8768 29.5665 37.7996 29.3802 37.6622 29.2428C37.5248 29.1054 37.3384 29.0282 37.1441 29.0282H34.9462V28.2956C34.9462 28.1013 34.8691 27.9149 34.7317 27.7775C34.5943 27.6401 34.4079 27.5629 34.2136 27.5629C34.0193 27.5629 33.833 27.6401 33.6956 27.7775C33.5582 27.9149 33.481 28.1013 33.481 28.2956V29.0282H32.7483C31.9711 29.0282 31.2257 29.3369 30.6762 29.8865C30.1266 30.4361 29.8178 31.1815 29.8178 31.9587C29.8178 32.7359 30.1266 33.4813 30.6762 34.0309C31.2257 34.5805 31.9711 34.8892 32.7483 34.8892H35.6789C36.0675 34.8892 36.4402 35.0436 36.715 35.3184C36.9898 35.5932 37.1441 35.9659 37.1441 36.3545C37.1441 36.7431 36.9898 37.1158 36.715 37.3906C36.4402 37.6654 36.0675 37.8198 35.6789 37.8198H30.5505C30.3562 37.8198 30.1698 37.8969 30.0324 38.0343C29.895 38.1717 29.8178 38.3581 29.8178 38.5524C29.8178 38.7467 29.895 38.933 30.0324 39.0704C30.1698 39.2078 30.3562 39.285 30.5505 39.285H33.481V40.0176C33.481 40.2119 33.5582 40.3983 33.6956 40.5357C33.833 40.6731 34.0193 40.7503 34.2136 40.7503C34.4079 40.7503 34.5943 40.6731 34.7317 40.5357C34.8691 40.3983 34.9462 40.2119 34.9462 40.0176V39.285H35.6789C36.4561 39.285 37.2015 38.9763 37.7511 38.4267C38.3006 37.8771 38.6094 37.1317 38.6094 36.3545C38.6094 35.5773 38.3006 34.8319 37.7511 34.2823C37.2015 33.7327 36.4561 33.424 35.6789 33.424ZM34.7565 3.68432V3.16635C34.7559 2.88503 34.6743 2.60984 34.5215 2.37364C34.3687 2.13743 34.1512 1.95021 33.8948 1.83432C33.6385 1.71844 33.3542 1.67879 33.076 1.72013C32.7977 1.76146 32.5372 1.88202 32.3256 2.0674L28.3101 5.58403C28.1542 5.72233 28.0294 5.89211 27.944 6.08217C27.8585 6.27223 27.8143 6.47825 27.8143 6.68664C27.8143 6.89502 27.8585 7.10104 27.944 7.2911C28.0294 7.48116 28.1542 7.65094 28.3101 7.78924L32.3264 11.3059C32.5363 11.4894 32.7942 11.6092 33.0699 11.6513C33.3456 11.6933 33.6275 11.6558 33.8826 11.5432C34.1377 11.4306 34.3554 11.2475 34.51 11.0155C34.6647 10.7834 34.7499 10.5121 34.7558 10.2333C37.2853 11.762 39.2536 14.0667 40.3677 16.8043C40.5724 17.3154 40.9622 17.7307 41.4594 17.9674C41.9566 18.204 42.5248 18.2447 43.0506 18.0812L44.4528 17.6453C44.7416 17.554 45.0085 17.4044 45.2371 17.2059C45.4658 17.0073 45.6513 16.764 45.7822 16.491C45.9131 16.2179 45.9867 15.9209 45.9984 15.6183C46.01 15.3157 45.9595 15.014 45.85 14.7316C44.8407 12.2377 43.3378 9.97353 41.4314 8.07509C39.525 6.17666 37.2546 4.68316 34.7565 3.68432ZM44.466 15.8555C44.4224 15.9486 44.3597 16.0315 44.2819 16.0988C44.2042 16.1661 44.1131 16.2162 44.0147 16.246L42.6125 16.6812C42.437 16.7352 42.2476 16.7209 42.0823 16.6412C41.9169 16.5614 41.7878 16.4221 41.7209 16.2511C40.3158 12.7984 37.6954 9.9794 34.3543 8.32626C34.2425 8.27111 34.1185 8.24522 33.994 8.25101C33.8695 8.2568 33.7484 8.29408 33.6422 8.35937C33.536 8.42465 33.4481 8.51581 33.3867 8.62431C33.3254 8.73281 33.2925 8.85511 33.2912 8.97977V10.1996L29.2749 6.68297L33.2912 3.16635V4.17738C33.2912 4.32525 33.3358 4.46968 33.4194 4.59168C33.503 4.71368 33.6215 4.80754 33.7594 4.86092C36.172 5.75804 38.3716 7.14736 40.2182 8.94053C42.0649 10.7337 43.5182 12.8915 44.4858 15.2767C44.5231 15.3692 44.5405 15.4685 44.5371 15.5682C44.5337 15.6679 44.5095 15.7657 44.466 15.8555ZM13.1571 44.1152V44.6281C13.16 44.9084 13.2429 45.182 13.3959 45.4169C13.549 45.6517 13.7658 45.838 14.0211 45.954C14.2763 46.0699 14.5593 46.1106 14.8368 46.0713C15.1144 46.032 15.3749 45.9144 15.588 45.7322L19.6035 42.2155C19.7594 42.0772 19.8842 41.9074 19.9696 41.7174C20.0551 41.5273 20.0992 41.3213 20.0992 41.1129C20.0992 40.9045 20.0551 40.6985 19.9696 40.5085C19.8842 40.3184 19.7594 40.1486 19.6035 40.0103L15.5872 36.4937C15.3773 36.3101 15.1193 36.1903 14.8437 36.1483C14.568 36.1062 14.2861 36.1437 14.031 36.2563C13.7759 36.369 13.5582 36.5521 13.4035 36.7841C13.2489 37.0161 13.1636 37.2875 13.1578 37.5663C10.6286 36.0352 8.66151 33.7282 7.54953 30.9887C7.34551 30.477 6.9558 30.0611 6.45837 29.8244C5.96094 29.5876 5.39246 29.5474 4.86664 29.7117L3.46439 30.1477C3.17568 30.239 2.90876 30.3886 2.68011 30.5871C2.45147 30.7857 2.26595 31.029 2.13503 31.302C2.0041 31.5751 1.93053 31.8721 1.91888 32.1746C1.90722 32.4772 1.95772 32.779 2.06726 33.0613C3.07536 35.5561 4.57741 37.8214 6.48316 39.721C8.38891 41.6205 10.659 43.1152 13.1571 44.1152ZM3.44754 31.9441C3.49115 31.8509 3.55387 31.7681 3.63162 31.7008C3.70938 31.6335 3.80042 31.5833 3.89884 31.5536L5.30109 31.1184C5.47657 31.0656 5.66546 31.0804 5.83052 31.16C5.99557 31.2397 6.1248 31.3782 6.1927 31.5484C7.59782 35.0012 10.2182 37.8202 13.5593 39.4733C13.6711 39.5284 13.7951 39.5543 13.9196 39.5486C14.0441 39.5428 14.1651 39.5055 14.2713 39.4402C14.3775 39.3749 14.4654 39.2837 14.5268 39.1752C14.5882 39.0667 14.6211 38.9445 14.6223 38.8198V37.6L18.6386 41.1166L14.6223 44.6332V43.6222C14.6224 43.4743 14.5777 43.3299 14.4942 43.2079C14.4106 43.0859 14.2921 42.992 14.1542 42.9386C11.7416 42.0415 9.54201 40.6522 7.69536 38.859C5.84871 37.0659 4.39537 34.9081 3.42776 32.5228C3.39051 32.4303 3.37302 32.331 3.37643 32.2314C3.37984 32.1317 3.40406 32.0338 3.44754 31.9441Z"/>
</mask>
<path d="M9.30418 17.3061C9.10988 17.3061 8.92353 17.3833 8.78614 17.5207C8.64874 17.6581 8.57155 17.8444 8.57155 18.0387C8.57155 18.233 8.64874 18.4194 8.78614 18.5568C8.92353 18.6942 9.10988 18.7714 9.30418 18.7714H11.5021V19.504C11.5021 19.6983 11.5793 19.8847 11.7167 20.022C11.8541 20.1594 12.0404 20.2366 12.2347 20.2366C12.429 20.2366 12.6154 20.1594 12.7528 20.022C12.8901 19.8847 12.9673 19.6983 12.9673 19.504V18.7714H14.4326V19.504C14.4326 19.6983 14.5098 19.8847 14.6472 20.022C14.7846 20.1594 14.9709 20.2366 15.1652 20.2366C15.3595 20.2366 15.5459 20.1594 15.6833 20.022C15.8207 19.8847 15.8979 19.6983 15.8979 19.504V18.7714C16.4945 18.774 17.0776 18.5937 17.5686 18.2547C18.0597 17.9157 18.435 17.4344 18.644 16.8755C18.853 16.3167 18.8856 15.7072 18.7376 15.1292C18.5895 14.5512 18.2678 14.0325 17.8159 13.643C18.2678 13.2534 18.5895 12.7347 18.7376 12.1567C18.8856 11.5787 18.853 10.9692 18.644 10.4104C18.435 9.85153 18.0597 9.37018 17.5686 9.0312C17.0776 8.69222 16.4945 8.5119 15.8979 8.51455V7.78192C15.8979 7.58761 15.8207 7.40126 15.6833 7.26387C15.5459 7.12648 15.3595 7.04929 15.1652 7.04929C14.9709 7.04929 14.7846 7.12648 14.6472 7.26387C14.5098 7.40126 14.4326 7.58761 14.4326 7.78192V8.51455H12.9673V7.78192C12.9673 7.58761 12.8901 7.40126 12.7528 7.26387C12.6154 7.12648 12.429 7.04929 12.2347 7.04929C12.0404 7.04929 11.8541 7.12648 11.7167 7.26387C11.5793 7.40126 11.5021 7.58761 11.5021 7.78192V8.51455H9.30418C9.10988 8.51455 8.92353 8.59174 8.78614 8.72913C8.64874 8.86652 8.57155 9.05287 8.57155 9.24718C8.57155 9.44148 8.64874 9.62783 8.78614 9.76523C8.92353 9.90262 9.10988 9.97981 9.30418 9.97981H10.0368V17.3061H9.30418ZM11.5021 9.97981H15.8979C16.2865 9.97981 16.6592 10.1342 16.934 10.409C17.2087 10.6838 17.3631 11.0565 17.3631 11.4451C17.3631 11.8337 17.2087 12.2064 16.934 12.4812C16.6592 12.756 16.2865 12.9103 15.8979 12.9103H11.5021V9.97981ZM11.5021 14.3756H15.8979C16.2865 14.3756 16.6592 14.53 16.934 14.8048C17.2087 15.0795 17.3631 15.4522 17.3631 15.8408C17.3631 16.2295 17.2087 16.6022 16.934 16.8769C16.6592 17.1517 16.2865 17.3061 15.8979 17.3061H11.5021V14.3756ZM35.6789 33.424H32.7483C32.3597 33.424 31.987 33.2696 31.7123 32.9948C31.4375 32.72 31.2831 32.3473 31.2831 31.9587C31.2831 31.5701 31.4375 31.1974 31.7123 30.9226C31.987 30.6478 32.3597 30.4935 32.7483 30.4935H37.1441C37.3384 30.4935 37.5248 30.4163 37.6622 30.2789C37.7996 30.1415 37.8768 29.9551 37.8768 29.7608C37.8768 29.5665 37.7996 29.3802 37.6622 29.2428C37.5248 29.1054 37.3384 29.0282 37.1441 29.0282H34.9462V28.2956C34.9462 28.1013 34.8691 27.9149 34.7317 27.7775C34.5943 27.6401 34.4079 27.5629 34.2136 27.5629C34.0193 27.5629 33.833 27.6401 33.6956 27.7775C33.5582 27.9149 33.481 28.1013 33.481 28.2956V29.0282H32.7483C31.9711 29.0282 31.2257 29.3369 30.6762 29.8865C30.1266 30.4361 29.8178 31.1815 29.8178 31.9587C29.8178 32.7359 30.1266 33.4813 30.6762 34.0309C31.2257 34.5805 31.9711 34.8892 32.7483 34.8892H35.6789C36.0675 34.8892 36.4402 35.0436 36.715 35.3184C36.9898 35.5932 37.1441 35.9659 37.1441 36.3545C37.1441 36.7431 36.9898 37.1158 36.715 37.3906C36.4402 37.6654 36.0675 37.8198 35.6789 37.8198H30.5505C30.3562 37.8198 30.1698 37.8969 30.0324 38.0343C29.895 38.1717 29.8178 38.3581 29.8178 38.5524C29.8178 38.7467 29.895 38.933 30.0324 39.0704C30.1698 39.2078 30.3562 39.285 30.5505 39.285H33.481V40.0176C33.481 40.2119 33.5582 40.3983 33.6956 40.5357C33.833 40.6731 34.0193 40.7503 34.2136 40.7503C34.4079 40.7503 34.5943 40.6731 34.7317 40.5357C34.8691 40.3983 34.9462 40.2119 34.9462 40.0176V39.285H35.6789C36.4561 39.285 37.2015 38.9763 37.7511 38.4267C38.3006 37.8771 38.6094 37.1317 38.6094 36.3545C38.6094 35.5773 38.3006 34.8319 37.7511 34.2823C37.2015 33.7327 36.4561 33.424 35.6789 33.424ZM34.7565 3.68432V3.16635C34.7559 2.88503 34.6743 2.60984 34.5215 2.37364C34.3687 2.13743 34.1512 1.95021 33.8948 1.83432C33.6385 1.71844 33.3542 1.67879 33.076 1.72013C32.7977 1.76146 32.5372 1.88202 32.3256 2.0674L28.3101 5.58403C28.1542 5.72233 28.0294 5.89211 27.944 6.08217C27.8585 6.27223 27.8143 6.47825 27.8143 6.68664C27.8143 6.89502 27.8585 7.10104 27.944 7.2911C28.0294 7.48116 28.1542 7.65094 28.3101 7.78924L32.3264 11.3059C32.5363 11.4894 32.7942 11.6092 33.0699 11.6513C33.3456 11.6933 33.6275 11.6558 33.8826 11.5432C34.1377 11.4306 34.3554 11.2475 34.51 11.0155C34.6647 10.7834 34.7499 10.5121 34.7558 10.2333C37.2853 11.762 39.2536 14.0667 40.3677 16.8043C40.5724 17.3154 40.9622 17.7307 41.4594 17.9674C41.9566 18.204 42.5248 18.2447 43.0506 18.0812L44.4528 17.6453C44.7416 17.554 45.0085 17.4044 45.2371 17.2059C45.4658 17.0073 45.6513 16.764 45.7822 16.491C45.9131 16.2179 45.9867 15.9209 45.9984 15.6183C46.01 15.3157 45.9595 15.014 45.85 14.7316C44.8407 12.2377 43.3378 9.97353 41.4314 8.07509C39.525 6.17666 37.2546 4.68316 34.7565 3.68432ZM44.466 15.8555C44.4224 15.9486 44.3597 16.0315 44.2819 16.0988C44.2042 16.1661 44.1131 16.2162 44.0147 16.246L42.6125 16.6812C42.437 16.7352 42.2476 16.7209 42.0823 16.6412C41.9169 16.5614 41.7878 16.4221 41.7209 16.2511C40.3158 12.7984 37.6954 9.9794 34.3543 8.32626C34.2425 8.27111 34.1185 8.24522 33.994 8.25101C33.8695 8.2568 33.7484 8.29408 33.6422 8.35937C33.536 8.42465 33.4481 8.51581 33.3867 8.62431C33.3254 8.73281 33.2925 8.85511 33.2912 8.97977V10.1996L29.2749 6.68297L33.2912 3.16635V4.17738C33.2912 4.32525 33.3358 4.46968 33.4194 4.59168C33.503 4.71368 33.6215 4.80754 33.7594 4.86092C36.172 5.75804 38.3716 7.14736 40.2182 8.94053C42.0649 10.7337 43.5182 12.8915 44.4858 15.2767C44.5231 15.3692 44.5405 15.4685 44.5371 15.5682C44.5337 15.6679 44.5095 15.7657 44.466 15.8555ZM13.1571 44.1152V44.6281C13.16 44.9084 13.2429 45.182 13.3959 45.4169C13.549 45.6517 13.7658 45.838 14.0211 45.954C14.2763 46.0699 14.5593 46.1106 14.8368 46.0713C15.1144 46.032 15.3749 45.9144 15.588 45.7322L19.6035 42.2155C19.7594 42.0772 19.8842 41.9074 19.9696 41.7174C20.0551 41.5273 20.0992 41.3213 20.0992 41.1129C20.0992 40.9045 20.0551 40.6985 19.9696 40.5085C19.8842 40.3184 19.7594 40.1486 19.6035 40.0103L15.5872 36.4937C15.3773 36.3101 15.1193 36.1903 14.8437 36.1483C14.568 36.1062 14.2861 36.1437 14.031 36.2563C13.7759 36.369 13.5582 36.5521 13.4035 36.7841C13.2489 37.0161 13.1636 37.2875 13.1578 37.5663C10.6286 36.0352 8.66151 33.7282 7.54953 30.9887C7.34551 30.477 6.9558 30.0611 6.45837 29.8244C5.96094 29.5876 5.39246 29.5474 4.86664 29.7117L3.46439 30.1477C3.17568 30.239 2.90876 30.3886 2.68011 30.5871C2.45147 30.7857 2.26595 31.029 2.13503 31.302C2.0041 31.5751 1.93053 31.8721 1.91888 32.1746C1.90722 32.4772 1.95772 32.779 2.06726 33.0613C3.07536 35.5561 4.57741 37.8214 6.48316 39.721C8.38891 41.6205 10.659 43.1152 13.1571 44.1152ZM3.44754 31.9441C3.49115 31.8509 3.55387 31.7681 3.63162 31.7008C3.70938 31.6335 3.80042 31.5833 3.89884 31.5536L5.30109 31.1184C5.47657 31.0656 5.66546 31.0804 5.83052 31.16C5.99557 31.2397 6.1248 31.3782 6.1927 31.5484C7.59782 35.0012 10.2182 37.8202 13.5593 39.4733C13.6711 39.5284 13.7951 39.5543 13.9196 39.5486C14.0441 39.5428 14.1651 39.5055 14.2713 39.4402C14.3775 39.3749 14.4654 39.2837 14.5268 39.1752C14.5882 39.0667 14.6211 38.9445 14.6223 38.8198V37.6L18.6386 41.1166L14.6223 44.6332V43.6222C14.6224 43.4743 14.5777 43.3299 14.4942 43.2079C14.4106 43.0859 14.2921 42.992 14.1542 42.9386C11.7416 42.0415 9.54201 40.6522 7.69536 38.859C5.84871 37.0659 4.39537 34.9081 3.42776 32.5228C3.39051 32.4303 3.37302 32.331 3.37643 32.2314C3.37984 32.1317 3.40406 32.0338 3.44754 31.9441Z" fill="#9747FF"/>
<path d="M9.30418 17.3061C9.10988 17.3061 8.92353 17.3833 8.78614 17.5207C8.64874 17.6581 8.57155 17.8444 8.57155 18.0387C8.57155 18.233 8.64874 18.4194 8.78614 18.5568C8.92353 18.6942 9.10988 18.7714 9.30418 18.7714H11.5021V19.504C11.5021 19.6983 11.5793 19.8847 11.7167 20.022C11.8541 20.1594 12.0404 20.2366 12.2347 20.2366C12.429 20.2366 12.6154 20.1594 12.7528 20.022C12.8901 19.8847 12.9673 19.6983 12.9673 19.504V18.7714H14.4326V19.504C14.4326 19.6983 14.5098 19.8847 14.6472 20.022C14.7846 20.1594 14.9709 20.2366 15.1652 20.2366C15.3595 20.2366 15.5459 20.1594 15.6833 20.022C15.8207 19.8847 15.8979 19.6983 15.8979 19.504V18.7714C16.4945 18.774 17.0776 18.5937 17.5686 18.2547C18.0597 17.9157 18.435 17.4344 18.644 16.8755C18.853 16.3167 18.8856 15.7072 18.7376 15.1292C18.5895 14.5512 18.2678 14.0325 17.8159 13.643C18.2678 13.2534 18.5895 12.7347 18.7376 12.1567C18.8856 11.5787 18.853 10.9692 18.644 10.4104C18.435 9.85153 18.0597 9.37018 17.5686 9.0312C17.0776 8.69222 16.4945 8.5119 15.8979 8.51455V7.78192C15.8979 7.58761 15.8207 7.40126 15.6833 7.26387C15.5459 7.12648 15.3595 7.04929 15.1652 7.04929C14.9709 7.04929 14.7846 7.12648 14.6472 7.26387C14.5098 7.40126 14.4326 7.58761 14.4326 7.78192V8.51455H12.9673V7.78192C12.9673 7.58761 12.8901 7.40126 12.7528 7.26387C12.6154 7.12648 12.429 7.04929 12.2347 7.04929C12.0404 7.04929 11.8541 7.12648 11.7167 7.26387C11.5793 7.40126 11.5021 7.58761 11.5021 7.78192V8.51455H9.30418C9.10988 8.51455 8.92353 8.59174 8.78614 8.72913C8.64874 8.86652 8.57155 9.05287 8.57155 9.24718C8.57155 9.44148 8.64874 9.62783 8.78614 9.76523C8.92353 9.90262 9.10988 9.97981 9.30418 9.97981H10.0368V17.3061H9.30418ZM11.5021 9.97981H15.8979C16.2865 9.97981 16.6592 10.1342 16.934 10.409C17.2087 10.6838 17.3631 11.0565 17.3631 11.4451C17.3631 11.8337 17.2087 12.2064 16.934 12.4812C16.6592 12.756 16.2865 12.9103 15.8979 12.9103H11.5021V9.97981ZM11.5021 14.3756H15.8979C16.2865 14.3756 16.6592 14.53 16.934 14.8048C17.2087 15.0795 17.3631 15.4522 17.3631 15.8408C17.3631 16.2295 17.2087 16.6022 16.934 16.8769C16.6592 17.1517 16.2865 17.3061 15.8979 17.3061H11.5021V14.3756ZM35.6789 33.424H32.7483C32.3597 33.424 31.987 33.2696 31.7123 32.9948C31.4375 32.72 31.2831 32.3473 31.2831 31.9587C31.2831 31.5701 31.4375 31.1974 31.7123 30.9226C31.987 30.6478 32.3597 30.4935 32.7483 30.4935H37.1441C37.3384 30.4935 37.5248 30.4163 37.6622 30.2789C37.7996 30.1415 37.8768 29.9551 37.8768 29.7608C37.8768 29.5665 37.7996 29.3802 37.6622 29.2428C37.5248 29.1054 37.3384 29.0282 37.1441 29.0282H34.9462V28.2956C34.9462 28.1013 34.8691 27.9149 34.7317 27.7775C34.5943 27.6401 34.4079 27.5629 34.2136 27.5629C34.0193 27.5629 33.833 27.6401 33.6956 27.7775C33.5582 27.9149 33.481 28.1013 33.481 28.2956V29.0282H32.7483C31.9711 29.0282 31.2257 29.3369 30.6762 29.8865C30.1266 30.4361 29.8178 31.1815 29.8178 31.9587C29.8178 32.7359 30.1266 33.4813 30.6762 34.0309C31.2257 34.5805 31.9711 34.8892 32.7483 34.8892H35.6789C36.0675 34.8892 36.4402 35.0436 36.715 35.3184C36.9898 35.5932 37.1441 35.9659 37.1441 36.3545C37.1441 36.7431 36.9898 37.1158 36.715 37.3906C36.4402 37.6654 36.0675 37.8198 35.6789 37.8198H30.5505C30.3562 37.8198 30.1698 37.8969 30.0324 38.0343C29.895 38.1717 29.8178 38.3581 29.8178 38.5524C29.8178 38.7467 29.895 38.933 30.0324 39.0704C30.1698 39.2078 30.3562 39.285 30.5505 39.285H33.481V40.0176C33.481 40.2119 33.5582 40.3983 33.6956 40.5357C33.833 40.6731 34.0193 40.7503 34.2136 40.7503C34.4079 40.7503 34.5943 40.6731 34.7317 40.5357C34.8691 40.3983 34.9462 40.2119 34.9462 40.0176V39.285H35.6789C36.4561 39.285 37.2015 38.9763 37.7511 38.4267C38.3006 37.8771 38.6094 37.1317 38.6094 36.3545C38.6094 35.5773 38.3006 34.8319 37.7511 34.2823C37.2015 33.7327 36.4561 33.424 35.6789 33.424ZM34.7565 3.68432V3.16635C34.7559 2.88503 34.6743 2.60984 34.5215 2.37364C34.3687 2.13743 34.1512 1.95021 33.8948 1.83432C33.6385 1.71844 33.3542 1.67879 33.076 1.72013C32.7977 1.76146 32.5372 1.88202 32.3256 2.0674L28.3101 5.58403C28.1542 5.72233 28.0294 5.89211 27.944 6.08217C27.8585 6.27223 27.8143 6.47825 27.8143 6.68664C27.8143 6.89502 27.8585 7.10104 27.944 7.2911C28.0294 7.48116 28.1542 7.65094 28.3101 7.78924L32.3264 11.3059C32.5363 11.4894 32.7942 11.6092 33.0699 11.6513C33.3456 11.6933 33.6275 11.6558 33.8826 11.5432C34.1377 11.4306 34.3554 11.2475 34.51 11.0155C34.6647 10.7834 34.7499 10.5121 34.7558 10.2333C37.2853 11.762 39.2536 14.0667 40.3677 16.8043C40.5724 17.3154 40.9622 17.7307 41.4594 17.9674C41.9566 18.204 42.5248 18.2447 43.0506 18.0812L44.4528 17.6453C44.7416 17.554 45.0085 17.4044 45.2371 17.2059C45.4658 17.0073 45.6513 16.764 45.7822 16.491C45.9131 16.2179 45.9867 15.9209 45.9984 15.6183C46.01 15.3157 45.9595 15.014 45.85 14.7316C44.8407 12.2377 43.3378 9.97353 41.4314 8.07509C39.525 6.17666 37.2546 4.68316 34.7565 3.68432ZM44.466 15.8555C44.4224 15.9486 44.3597 16.0315 44.2819 16.0988C44.2042 16.1661 44.1131 16.2162 44.0147 16.246L42.6125 16.6812C42.437 16.7352 42.2476 16.7209 42.0823 16.6412C41.9169 16.5614 41.7878 16.4221 41.7209 16.2511C40.3158 12.7984 37.6954 9.9794 34.3543 8.32626C34.2425 8.27111 34.1185 8.24522 33.994 8.25101C33.8695 8.2568 33.7484 8.29408 33.6422 8.35937C33.536 8.42465 33.4481 8.51581 33.3867 8.62431C33.3254 8.73281 33.2925 8.85511 33.2912 8.97977V10.1996L29.2749 6.68297L33.2912 3.16635V4.17738C33.2912 4.32525 33.3358 4.46968 33.4194 4.59168C33.503 4.71368 33.6215 4.80754 33.7594 4.86092C36.172 5.75804 38.3716 7.14736 40.2182 8.94053C42.0649 10.7337 43.5182 12.8915 44.4858 15.2767C44.5231 15.3692 44.5405 15.4685 44.5371 15.5682C44.5337 15.6679 44.5095 15.7657 44.466 15.8555ZM13.1571 44.1152V44.6281C13.16 44.9084 13.2429 45.182 13.3959 45.4169C13.549 45.6517 13.7658 45.838 14.0211 45.954C14.2763 46.0699 14.5593 46.1106 14.8368 46.0713C15.1144 46.032 15.3749 45.9144 15.588 45.7322L19.6035 42.2155C19.7594 42.0772 19.8842 41.9074 19.9696 41.7174C20.0551 41.5273 20.0992 41.3213 20.0992 41.1129C20.0992 40.9045 20.0551 40.6985 19.9696 40.5085C19.8842 40.3184 19.7594 40.1486 19.6035 40.0103L15.5872 36.4937C15.3773 36.3101 15.1193 36.1903 14.8437 36.1483C14.568 36.1062 14.2861 36.1437 14.031 36.2563C13.7759 36.369 13.5582 36.5521 13.4035 36.7841C13.2489 37.0161 13.1636 37.2875 13.1578 37.5663C10.6286 36.0352 8.66151 33.7282 7.54953 30.9887C7.34551 30.477 6.9558 30.0611 6.45837 29.8244C5.96094 29.5876 5.39246 29.5474 4.86664 29.7117L3.46439 30.1477C3.17568 30.239 2.90876 30.3886 2.68011 30.5871C2.45147 30.7857 2.26595 31.029 2.13503 31.302C2.0041 31.5751 1.93053 31.8721 1.91888 32.1746C1.90722 32.4772 1.95772 32.779 2.06726 33.0613C3.07536 35.5561 4.57741 37.8214 6.48316 39.721C8.38891 41.6205 10.659 43.1152 13.1571 44.1152ZM3.44754 31.9441C3.49115 31.8509 3.55387 31.7681 3.63162 31.7008C3.70938 31.6335 3.80042 31.5833 3.89884 31.5536L5.30109 31.1184C5.47657 31.0656 5.66546 31.0804 5.83052 31.16C5.99557 31.2397 6.1248 31.3782 6.1927 31.5484C7.59782 35.0012 10.2182 37.8202 13.5593 39.4733C13.6711 39.5284 13.7951 39.5543 13.9196 39.5486C14.0441 39.5428 14.1651 39.5055 14.2713 39.4402C14.3775 39.3749 14.4654 39.2837 14.5268 39.1752C14.5882 39.0667 14.6211 38.9445 14.6223 38.8198V37.6L18.6386 41.1166L14.6223 44.6332V43.6222C14.6224 43.4743 14.5777 43.3299 14.4942 43.2079C14.4106 43.0859 14.2921 42.992 14.1542 42.9386C11.7416 42.0415 9.54201 40.6522 7.69536 38.859C5.84871 37.0659 4.39537 34.9081 3.42776 32.5228C3.39051 32.4303 3.37302 32.331 3.37643 32.2314C3.37984 32.1317 3.40406 32.0338 3.44754 31.9441Z" stroke="#9747FF" stroke-width="2" mask="url(#path-2-outside-1_288_16)"/>
</svg>
